<?xml version="1.0" encoding="UTF-8"?>
<!DOCTYPE svg PUBLIC "-//W3C//DTD SVG 1.1//EN" "http://www.w3.org/Graphics/SVG/1.1/DTD/svg11.dtd">
<!-- Creator: CorelDRAW 2019 (64-Bit) -->
<svg xmlns="http://www.w3.org/2000/svg" xml:space="preserve" width="0.467908in" height="1in" version="1.1" style="shape-rendering:geometricPrecision; text-rendering:geometricPrecision; image-rendering:optimizeQuality; fill-rule:evenodd; clip-rule:evenodd"
viewBox="0 0 467.91 1000"
 xmlns:xlink="http://www.w3.org/1999/xlink">
 <defs>
  <style type="text/css">
   <![CDATA[
    .fil1 {fill:url(#id0)}
    .fil0 {fill:url(#id1)}
   ]]>
  </style>
  <radialGradient id="id0" gradientUnits="userSpaceOnUse" gradientTransform="matrix(0.0520235 -1.12067 -0.990107 -0.0815031 1237 1372)" cx="242.3" cy="1017.31" r="450.14" fx="242.3" fy="1017.31">
   <stop offset="0" style="stop-opacity:1; stop-color:#848588"/>
   <stop offset="1" style="stop-opacity:1; stop-color:#4C4C4D"/>
  </radialGradient>
  <radialGradient id="id1" gradientUnits="userSpaceOnUse" gradientTransform="matrix(0.0520234 -1.12067 -0.990104 -0.0815031 1197 1324)" xlink:href="#id0" cx="199.24" cy="1018" r="450.14" fx="199.24" fy="1018">
  </radialGradient>
 </defs>
 <g id="Layer_x0020_1">
  <metadata id="CorelCorpID_0Corel-Layer"/>
  <path class="fil0" d="M94.43 1000c0,0 200.09,-106.02 198.56,-300.09 -1.53,-194.07 -261.18,-321.66 -119.14,-546.27 0,0 -123.72,134.77 -39.71,283.92 84.01,149.15 168.01,266.55 85.29,385.15 0,0 15.52,-99.48 -97.5,-265.95 -121.09,-178.35 -102.84,-298.29 56.51,-457.03 0,0 -266.45,152.86 -148.16,391.74 93.51,188.83 158.51,235.92 138.48,367.18 -14.26,93.44 -74.33,141.36 -74.33,141.36z"/>
  <path class="fil1" d="M269.34 900.27c0,0 200.09,-106.02 198.56,-300.09 -1.53,-194.07 -261.18,-321.66 -119.14,-546.27 0,0 -123.72,134.77 -39.71,283.92 84,149.15 168.01,266.55 85.29,385.15 0,0 15.52,-99.48 -97.51,-265.95 -121.09,-178.35 -102.84,-298.29 56.51,-457.03 0,0 -266.45,152.86 -148.16,391.74 93.51,188.83 158.51,235.92 138.48,367.18 -14.25,93.44 -74.33,141.36 -74.33,141.36z"/>
 </g>
</svg>
